<?xml version="1.0" encoding="utf-8"?>
<!-- Generator: Adobe Illustrator 21.0.0, SVG Export Plug-In . SVG Version: 6.00 Build 0)  -->
<svg version="1.1" id="Шар_1" xmlns="http://www.w3.org/2000/svg" xmlns:xlink="http://www.w3.org/1999/xlink" x="0px" y="0px"
	 width="304px" height="154.6px" viewBox="0 0 304 154.6" style="enable-background:new 0 0 304 154.6;" xml:space="preserve">
<style type="text/css">
	.st0{fill-rule:evenodd;clip-rule:evenodd;fill:#026937;}
	.st1{fill-rule:evenodd;clip-rule:evenodd;fill:url(#SVGID_1_);}
	.st2{fill-rule:evenodd;clip-rule:evenodd;fill:url(#SVGID_2_);}
	.st3{fill-rule:evenodd;clip-rule:evenodd;fill:url(#SVGID_3_);}
	.st4{fill-rule:evenodd;clip-rule:evenodd;fill:#FFFFFF;}
	.st5{fill:#FFFFFF;}
</style>
<g>
	<path class="st0" d="M276.4,109.3L301.8,31c-50.9-19.4-102-29.2-152-29.2c-30.6,0-79,3.1-147.7,29.2l25.4,78.4
		c7.6-3,39-14.8,77.3-20.5l2.8-0.4l-0.8,2.7c-1.5,4.6-2.2,9.5-2.2,14.4c0,26.1,21.3,47.4,47.4,47.4c26.2,0,47.4-21.3,47.4-47.4
		c0-5-0.8-9.9-2.3-14.7l-0.9-2.6l2.8,0.4C237.5,94.1,268.8,106.2,276.4,109.3z"/>
	
		<linearGradient id="SVGID_1_" gradientUnits="userSpaceOnUse" x1="-28.1017" y1="78.0034" x2="332.924" y2="78.0034" gradientTransform="matrix(1 0 0 1 -0.4209 -0.6973)">
		<stop  offset="0" style="stop-color:#FFD36E"/>
		<stop  offset="5.670396e-02" style="stop-color:#F3C462"/>
		<stop  offset="0.156" style="stop-color:#DAA446"/>
		<stop  offset="0.2853" style="stop-color:#B1761D"/>
		<stop  offset="0.3173" style="stop-color:#A66A12"/>
		<stop  offset="0.3723" style="stop-color:#AD7119"/>
		<stop  offset="0.4573" style="stop-color:#BF862B"/>
		<stop  offset="0.5611" style="stop-color:#DEAA4B"/>
		<stop  offset="0.6472" style="stop-color:#FFD36E"/>
		<stop  offset="0.7327" style="stop-color:#E2B559"/>
		<stop  offset="0.9137" style="stop-color:#AF8233"/>
		<stop  offset="1" style="stop-color:#9C7025"/>
	</linearGradient>
	<path class="st1" d="M304,30C231.1,1.9,175,0,149.8,0c-26,0-77,1.9-149.8,30l26.5,81.7c0,0,34.5-14.5,78.7-21.1
		c-1.5,4.7-2.3,9.7-2.3,14.9c0,27.2,22,49.2,49.2,49.2c27.2,0,49.2-22,49.2-49.2c0-5.3-0.8-10.4-2.4-15.2
		c44.5,6.4,78.7,21.4,78.7,21.4L304,30z M187.7,81.9c4.5,6.8,7.1,14.9,7.1,23.6c0,23.6-19.2,42.8-42.8,42.8
		c-23.6,0-42.8-19.2-42.8-42.8c0-8.7,2.6-16.7,7-23.5c-44.9,5.6-85.3,21.5-85.3,21.5L8.3,33.9C73.6,8.7,126.8,5.8,150,5.8
		c22.6,0,80.7,2.7,146.1,27.8l-22.4,69.8C273.7,103.4,232.8,87.4,187.7,81.9z"/>
	<g>
		
			<linearGradient id="SVGID_2_" gradientUnits="userSpaceOnUse" x1="-28.4326" y1="106.4758" x2="333.3623" y2="106.4758" gradientTransform="matrix(1 0 0 1 -0.4209 -0.6973)">
			<stop  offset="0" style="stop-color:#FFD36E"/>
			<stop  offset="5.670396e-02" style="stop-color:#F3C462"/>
			<stop  offset="0.156" style="stop-color:#DAA446"/>
			<stop  offset="0.2853" style="stop-color:#B1761D"/>
			<stop  offset="0.3173" style="stop-color:#A66A12"/>
			<stop  offset="0.3723" style="stop-color:#AD7119"/>
			<stop  offset="0.4573" style="stop-color:#BF862B"/>
			<stop  offset="0.5611" style="stop-color:#DEAA4B"/>
			<stop  offset="0.6472" style="stop-color:#FFD36E"/>
			<stop  offset="0.7327" style="stop-color:#E2B559"/>
			<stop  offset="0.9137" style="stop-color:#AF8233"/>
			<stop  offset="1" style="stop-color:#9C7025"/>
		</linearGradient>
		<path class="st2" d="M146.8,105.6c-0.8,0.5-1.6,1-2.3,1.4c-1.8,1.1-3.4,2-4.8,2.4c-5.7,1.1-9.8-1.3-10.9-4.1
			c-0.4-0.9-0.5-2-0.1-2.9c0.1-0.3,0.2-0.5,0.4-0.7c0.2,0.5,0.9,0.9,1.4,0.9c0.5,0,0.9-0.2,1.2-0.6c0.3-0.4,0.4-0.9,0.2-1.4
			c-0.2-0.7-0.8-1.2-1.6-1.6c-0.7-0.3-1.6-0.4-2.5-0.2c-1.5,0.4-2.3,1.4-2.7,2.6c-0.4,1.2-0.4,2.6-0.1,3.9c0.6,2.1,2,4.3,4.3,5.8
			c2.3,1.5,5.4,2.2,9.3,1.5c0,0.2,0,0.3-0.1,0.5c-0.6,3,0.8,5.5,2.8,7c1.6,1.1,3.5,1.6,5.4,1.3c1.8-0.3,3.5-1.3,4.8-3.1
			c-0.9,0-2,0-3-0.1c-0.9-0.1-1.9-0.4-2.7-0.8c-1.4-0.7-1.9-1.8-2-2.9c-0.1-1.6,0.6-3.5,1.5-4.9c0.9-1.3,1.8-2.4,3-3.5
			c0.4-0.4,0.9-0.8,1.4-1.2c0.7-0.4,1.3-0.7,2.1-0.7c0.3,0,0.4-0.1,0.4-0.2c0-0.1-0.1-0.2-0.3-0.3c-0.5-0.1-1.4,0.1-2.3,0.4
			C148.6,104.6,147.6,105.1,146.8,105.6z M157.3,105.9c0.8-0.5,1.6-1,2.3-1.4c1.8-1.1,3.4-2,4.8-2.4c5.7-1.1,9.8,1.3,10.9,4
			c0.4,0.9,0.5,2,0.1,2.9c-0.1,0.3-0.3,0.5-0.5,0.7c-0.2-0.5-0.9-0.9-1.4-0.9c-0.5,0-0.9,0.3-1.2,0.7c-0.3,0.4-0.4,0.9-0.2,1.4
			c0.2,0.7,0.8,1.2,1.6,1.6c0.7,0.3,1.6,0.4,2.5,0.2c1.5-0.5,2.3-1.4,2.7-2.6c0.4-1.2,0.4-2.6,0.2-3.9c-0.6-2.1-2-4.3-4.3-5.7
			c-2.3-1.5-5.4-2.2-9.3-1.5c0-0.2,0-0.3,0.1-0.5c0.6-3-0.8-5.5-2.8-7c-1.6-1.1-3.6-1.6-5.5-1.3c-1.8,0.3-3.5,1.3-4.8,3.1
			c0.9,0,2,0,3.1,0.1c0.9,0.1,1.9,0.4,2.6,0.8c1.4,0.7,1.9,1.8,2,2.9c0.1,1.6-0.6,3.5-1.5,4.9c-0.8,1.3-1.7,2.4-3,3.5
			c-0.6,0.5-1.2,1-1.8,1.4c-0.6,0.3-1.1,0.4-1.9,0.4c-0.2,0-0.3,0.1-0.3,0.2c0,0.1,0.2,0.3,0.3,0.3c0.6,0.1,1.3-0.1,2-0.3
			C155.3,107,156.4,106.4,157.3,105.9z M152.2,100.5c-0.5-0.8-1-1.6-1.4-2.3c-1.1-1.8-2-3.4-2.4-4.8c-1.1-5.7,1.3-9.8,4.1-10.9
			c0.9-0.4,2-0.5,2.9-0.1c0.3,0.1,0.5,0.3,0.7,0.5c-0.5,0.2-0.9,0.9-0.9,1.4c0,0.5,0.3,0.9,0.7,1.2c0.4,0.3,0.9,0.4,1.4,0.2
			c0.7-0.2,1.2-0.8,1.6-1.6c0.3-0.7,0.4-1.5,0.2-2.5c-0.4-1.5-1.4-2.3-2.6-2.7c-1.2-0.4-2.6-0.4-3.9-0.2c-2.1,0.6-4.3,2-5.8,4.3
			c-1.5,2.3-2.2,5.4-1.5,9.3c-0.2,0-0.3,0-0.6-0.1c-3-0.6-5.5,0.7-7,2.8c-1.1,1.6-1.6,3.5-1.3,5.4c0.3,1.8,1.2,3.5,3.1,4.8
			c0-0.9,0-2,0.2-3c0.1-1,0.4-1.9,0.7-2.6c0.7-1.4,1.8-2,2.9-2c1.6-0.1,3.5,0.7,4.9,1.5c1.3,0.9,2.4,1.8,3.5,3
			c0.2,0.2,0.6,0.7,1.2,1.5c0.5,1,0.6,1.4,0.6,2.1c0,0.3,0.1,0.3,0.3,0.3c0.1,0,0.2-0.2,0.2-0.3c0.1-0.4,0-1-0.1-1.5
			C153.6,102.8,152.9,101.6,152.2,100.5z M151.9,111c0.5,0.8,1,1.6,1.4,2.3c1.1,1.8,2.1,3.3,2.4,4.8c1.2,5.7-1.2,9.8-4,11
			c-0.8,0.4-2,0.5-2.9,0.1c-0.3-0.1-0.5-0.3-0.7-0.5c0.5-0.2,0.9-0.9,0.9-1.4c0-0.5-0.3-0.9-0.7-1.2c-0.4-0.3-0.9-0.4-1.5-0.2
			c-0.7,0.3-1.2,0.8-1.5,1.6c-0.3,0.7-0.4,1.6-0.2,2.5c0.5,1.5,1.4,2.3,2.6,2.7c1.2,0.4,2.6,0.4,3.9,0.1c2.1-0.6,4.3-2,5.7-4.3
			c1.4-2.3,2.2-5.4,1.4-9.3c0.2,0,0.3,0,0.6,0.1c3,0.5,5.5-0.8,6.9-2.9c1.1-1.6,1.5-3.6,1.2-5.5c-0.3-1.8-1.3-3.5-3.1-4.8
			c0,0.9,0,2-0.1,3.1c-0.1,0.9-0.3,1.9-0.7,2.6c-0.7,1.4-1.7,2-2.9,2.1c-1.6,0.1-3.5-0.6-4.9-1.5c-1.3-0.8-2.4-1.8-3.6-3
			c-0.6-0.6-1.1-1.3-1.6-2.2c-0.2-0.4-0.3-1.1-0.2-1.7c-0.1-0.1-0.2-0.2-0.3-0.1c-0.1,0.1-0.2,0.2-0.2,0.3c0,0.3,0,0.4,0,0.8
			c0,0.2,0,0.5,0.1,0.7C150.6,108.7,151.3,109.9,151.9,111z"/>
		
			<linearGradient id="SVGID_3_" gradientUnits="userSpaceOnUse" x1="-28.4364" y1="77.5432" x2="333.3627" y2="77.5432" gradientTransform="matrix(1 0 0 1 -0.4209 -0.6973)">
			<stop  offset="0" style="stop-color:#FFD36E"/>
			<stop  offset="5.670396e-02" style="stop-color:#F3C462"/>
			<stop  offset="0.156" style="stop-color:#DAA446"/>
			<stop  offset="0.2853" style="stop-color:#B1761D"/>
			<stop  offset="0.3173" style="stop-color:#A66A12"/>
			<stop  offset="0.3723" style="stop-color:#AD7119"/>
			<stop  offset="0.4573" style="stop-color:#BF862B"/>
			<stop  offset="0.5611" style="stop-color:#DEAA4B"/>
			<stop  offset="0.6472" style="stop-color:#FFD36E"/>
			<stop  offset="0.7327" style="stop-color:#E2B559"/>
			<stop  offset="0.9137" style="stop-color:#AF8233"/>
			<stop  offset="1" style="stop-color:#9C7025"/>
		</linearGradient>
		<path class="st3" d="M292.7,35.4c-62.3-24-121-27.3-142.6-27.3c-22.2,0-76.5,3-138.8,27L32,99.7c0,0,41.1-15.4,89.7-20.7
			c-6.2,7.1-9.9,16.3-9.9,26.5c0,22.2,18,40.2,40.2,40.2c22.2,0,40.2-18,40.2-40.2c0-10.3-3.9-19.7-10.2-26.8
			c46.3,4.8,90.1,21.3,90.1,21.3L292.7,35.4z M176.4,76.2c8.4,7,13.7,17.5,13.7,29.3c0,21-17.1,38.1-38.1,38.1
			c-21,0-38.1-17.1-38.1-38.1c0-11.8,5.3-22.3,13.7-29.2C80,80.1,33.2,97.3,33.2,97.3L14,35.8C73.6,12.9,129,10,150.2,10
			c20.6,0,80.3,3.2,139.9,26.1l-19.2,61C270.9,97.1,223.4,80,176.4,76.2z"/>
	</g>
	<path class="st4" d="M30.1,37.7c6.2-1.6,4-0.5,11.5-2.6c6.9-1.9,10.1-4,14.7-4.9c5.6-1.1,10.2-0.5,13.5,1.2c3,1.6,4.7,4,5.1,6.7
		c0.6,3.5-1.1,7.3-4.7,9.8c-2.8,1.9-8.4,3.3-8.9,4.1c0,0.1,0,0,0,0c1.2,0.9,11.8-1.7,16.4,1.7c1.9,1.4,3.7,3.7,4.5,6.8
		c1,3.7-0.1,7.6-2.4,10.7c-2.5,3.2-6.7,5.9-12.1,6.9c-2.8,0.5-5.2,0.6-7.9,1c-3.6,0.5-6.5,1.6-9.4,2.8c-1.9,0.8-3.8,1.6-5.8,2.3
		c-2.6,0.9-2.7-1.1-0.7-2.8c3.4-2.7,2.1-10,0.8-14.1c-2-6.4-3-10.6-5.1-17c-1.4-4.5-2.4-9.3-8.9-9.1C28.2,41.1,27.4,38.4,30.1,37.7z
		 M52.1,51.8c0.5-0.1,1.1-0.3,1.5-0.4c7.3-1.3,10.5-6.5,9.4-10.7c-0.9-3.6-5-6.4-12-4.7c-0.7,0.2-2.3,0.7-2.9,1
		C49.7,43,50.5,45.9,52.1,51.8z M53.2,55.7c1.7,6.2,2.5,9.2,4.2,15.4c0.6,2.4,3.7,3.7,6.1,3.2c4.2-0.8,8.9-3.5,8.1-10.4
		c-0.8-7.5-8.4-10.5-15.9-8.8C54.7,55.3,54.2,55.5,53.2,55.7"/>
	<path class="st4" d="M81,24.9c3.2-0.7,3.3,0.8,15-1.7c6-1.3,16.7-3.1,21.9-3.5c4-0.3,5.4,1.6,4.8,3.3c-0.6,1.6-1.8,4.5-2.8,7.1
		c-0.5,1.4-3,1.8-3.5-0.6c-0.9-3.9-4.5-4.5-5.8-4.4c-4.3,0.4-7,0.9-11.3,1.5c0.9,6.4,1.4,9.7,2.4,16.1c2.7-0.4,4.1-0.6,6.8-0.9
		c4.3-0.7,6.4-1,7.4-4c0.4-1.3,2.4-1.3,2.4,0.3c0,2.3,0.2,5.5,0.7,7.4c0.2,1,0.4,2.1,0,3.1c-0.4,1.2-2,0.9-2.8-0.5
		c-0.8-1.5-3.2-2.6-6.2-2.2c-3.1,0.4-4.6,0.6-7.7,1c0.5,3.4,0.7,5.1,1.2,8.4c0.6,3.9,1.4,6.2,2.5,7.5c1,1.2,2.2,1.6,3.6,1.7
		c1.9,0,3.7-0.2,5.4-0.6c2.2-0.5,5-1.1,7.4-4.6c1.8-2.6,3.6-1.9,3.4-0.2c-0.7,6.3-2.8,8.4-5.5,9.1c-1.5,0.4-3.1,0.3-4.7,0.3
		c-7.4-0.1-11.3,0.5-14.9,1.2c-2.7,0.5-6,1.8-9,2.6c-1.9,0.5-3.5,0.4-3.8-0.3c-0.4-0.9,0.5-1.4,1.1-1.8c3.9-2.8,4.3-8,3.7-11.2
		c-1.5-8.6-2.2-12.8-3.6-21.4c-0.5-2.4-1-5.8-2.9-7.8c-1-1-2.6-1.4-4.5-1.6c-1.2-0.1-2.2-0.9-2.3-1.7C79.3,25.9,79.7,25.2,81,24.9z"
		/>
	<path class="st4" d="M152.2,66.2c-1.1-0.1-1.9-0.4-3-0.6c-3.8-0.7-7.1-0.5-11,0.3c-1.1,0.2-2.8,0.7-3.8,0.8
		c-1.5,0.1-2.1-0.4-2.2-0.9c0-0.6,0.6-1.3,1.3-1.6c1.1-0.5,2-1.3,2.7-2.2c1.1-1.4,1.6-3.3,2-5.5c-0.3-9.9-0.5-14.8-0.8-24.7
		c-0.3-5.6-0.2-8.4-5.2-10.2c-2.4-0.8-3.3-3.1-0.3-3.3c1-0.1,2.2,0.1,3.3,0.1c1.8,0,3.7,0.1,5.6,0c5.9-0.1,6.9-1.4,15.8-0.9
		c10.9,0.6,22.7,5.9,20.7,16.1c-1.8,9.2-13.7,12.5-22,11.2c-3.5-0.6-2.9-3.6-0.4-3.3c4.8,0.5,10-1.1,11.1-8.3c0.5-3.5-0.4-6.1-2.3-8
		c-2-2-5.1-3.1-8.5-3.6c-1.5-0.2-4.1-0.1-5.6,0c0.1,14,0.2,21,0.3,35c0,1.8,0.6,3.5,1.8,4.8c0.8,0.9,2.2,1.5,3.3,2.1
		c0.7,0.3,0.9,1.1,0.8,1.6C155.4,65.8,154.2,66.4,152.2,66.2z"/>
	<path class="st4" d="M183,18.9c3.2,0.2,3,1.7,14.8,2.7c6.1,0.5,16.9,1.8,22,2.9c3.9,0.9,4.7,3.1,3.6,4.5c-1,1.3-3,3.8-4.7,6
		c-0.9,1.2-3.3,0.9-3.2-1.5c0.3-4-3.1-5.7-4.3-5.9c-4.2-0.8-7-1.2-11.3-1.8c-0.9,6.4-1.4,9.6-2.4,16.1c2.7,0.4,4.1,0.6,6.8,1.1
		c4.3,0.6,6.4,0.9,8.2-1.7c0.8-1.1,2.6-0.6,2.2,0.9c-0.6,2.2-1.3,5.4-1.5,7.3c-0.1,1-0.2,2.1-0.8,3c-0.7,1-2.2,0.3-2.5-1.3
		c-0.4-1.6-2.3-3.4-5.4-3.9c-3-0.5-4.6-0.8-7.6-1.2c-0.5,3.4-0.7,5.1-1.2,8.4c-0.6,3.9-0.4,6.4,0.2,7.9c0.6,1.5,1.7,2.2,3,2.6
		c1.8,0.6,3.6,0.9,5.4,1c2.3,0.2,5.1,0.4,8.4-2.3c2.4-2,4-0.8,3.3,0.8c-2.5,5.8-5,7.2-7.9,7.1c-1.6-0.1-3.1-0.6-4.6-1.1
		c-7.1-2.2-11-2.8-14.7-3.1c-2.8-0.3-6.2,0-9.4-0.1c-2-0.1-3.4-0.6-3.6-1.3c-0.1-1,0.9-1.1,1.6-1.4c4.5-1.5,6.4-6.4,6.8-9.7
		c1.1-8.6,1.6-12.9,2.6-21.5c0.2-2.4,0.8-5.9-0.5-8.3c-0.7-1.3-2.1-2.1-3.8-2.8c-1.2-0.5-1.8-1.6-1.8-2.4
		C181.1,19.3,181.7,18.8,183,18.9"/>
	<path class="st4" d="M257.1,78.7c-6,2.4-11.5,1.7-15.4,0.4c-6.2-2-11.2-5.9-14.4-11.3c-3.1-5.4-4.4-12.1-2.9-19.4
		c1.6-7.3,5.5-12.1,10.7-14.8c5.2-2.7,11.7-3.3,18-2.1c6.2,1.1,12.8,3.8,16.4,9.3c1,1.6,1.9,3.4,2.4,5.6c0.2,0.8,0.4,1.7,0.5,2.6
		c0.2,3.3-3.1,5.4-6,4.2c-3.6-1.6-1.8-5.8-2-8.1c-0.1-1.3-1.2-3.2-2.1-4.2c-2.4-2.7-5.1-3.4-7.5-4c-8-2-16.3,5.4-18.5,14.3
		c-3.1,12,1.7,21.2,9.1,23.7c3.3,1.2,6.5,0.8,9.5-0.5c3-1.3,5.8-3.5,8.4-5.9c1.5-1.4,3.6,0.3,3,1.9
		C265.2,73.8,260.1,77.5,257.1,78.7z"/>
	<path class="st5" d="M277,41.7c0-2,1.4-3.4,3.3-3.5c1.9,0,3.4,1.4,3.4,3.4c0,2-1.5,3.5-3.3,3.5C278.5,45.1,277,43.7,277,41.7
		 M280.4,45.8c2.3,0,4.2-1.8,4.1-4.2c0-2.4-2-4.1-4.2-4.1c-2.3,0-4.2,1.8-4.2,4.2C276.1,44.1,278.1,45.8,280.4,45.8 M279.4,42l0.8,0
		l1.3,2h0.8L281,42c0.7-0.1,1.2-0.5,1.2-1.3c0-0.9-0.6-1.3-1.7-1.3l-1.8,0l0,4.8h0.7L279.4,42z M279.4,41.4l0-1.5l1,0
		c0.5,0,1,0.1,1,0.7c0,0.7-0.6,0.8-1.2,0.8H279.4z"/>
</g>
</svg>
